<svg width="54" height="50" viewBox="0 0 54 50" fill="none" xmlns="http://www.w3.org/2000/svg">
<path d="M2 34.7849V7.44531" stroke="#747CDB" stroke-width="3" stroke-linecap="round"/>
<path d="M17.7557 12.8489C26.4573 12.8489 33.5114 10.4203 33.5114 7.42443C33.5114 4.4286 26.4573 2 17.7557 2C9.05406 2 2 4.4286 2 7.42443C2 10.4203 9.05406 12.8489 17.7557 12.8489Z" stroke="#747CDB" stroke-width="3" stroke-linecap="round"/>
<path d="M33.5217 14.4739C33.5217 17.4656 26.4617 19.8983 17.7557 19.8983C9.04969 19.8983 2 17.4656 2 14.4739" stroke="#747CDB" stroke-width="3" stroke-linecap="round"/>
<path d="M22.2174 26.5135C21.8033 26.5135 18.1801 26.5135 17.7557 26.5135C9.04969 26.5135 2 24.0808 2 21.0891" stroke="#747CDB" stroke-width="3" stroke-linecap="round"/>
<path d="M19.6605 33.3146C19.0393 33.3146 18.3975 33.3146 17.7557 33.3146C9.04969 33.3146 2 30.8922 2 27.8901" stroke="#747CDB" stroke-width="3" stroke-linecap="round"/>
<path d="M20.4783 40.0743C19.5731 40.155 18.6641 40.1827 17.7557 40.1571C9.04969 40.1571 2 37.7244 2 34.7327" stroke="#747CDB" stroke-width="3" stroke-linecap="round"/>
<path d="M33.5217 22.973V7.42432" stroke="#747CDB" stroke-width="3" stroke-linecap="round"/>
<path d="M36.2443 34.4121C44.946 34.4121 52 31.9835 52 28.9877C52 25.9918 44.946 23.5632 36.2443 23.5632C27.5427 23.5632 20.4886 25.9918 20.4886 28.9877C20.4886 31.9835 27.5427 34.4121 36.2443 34.4121Z" stroke="#747CDB" stroke-width="3" stroke-linecap="round"/>
<path d="M52 36.0374C52 39.0394 44.9503 41.4618 36.2443 41.4618C27.5383 41.4618 20.4783 39.0394 20.4783 36.0374" stroke="#747CDB" stroke-width="3" stroke-linecap="round"/>
<path d="M52 42.6313C52 45.6334 44.9503 48.0661 36.2443 48.0661C27.5383 48.0661 20.4783 45.6438 20.4783 42.6313" stroke="#747CDB" stroke-width="3" stroke-linecap="round"/>
<path d="M20.4783 42.5487V28.2112" stroke="#747CDB" stroke-width="3" stroke-linecap="round"/>
<path d="M52 42.8491V28.8015" stroke="#747CDB" stroke-width="3" stroke-linecap="round"/>
</svg>
