<svg width="60" height="60" viewBox="0 0 60 60" fill="none" xmlns="http://www.w3.org/2000/svg">
<path d="M20 21.5H8C7.60218 21.5 7.22064 21.342 6.93934 21.0607C6.65804 20.7794 6.5 20.3978 6.5 20V8C6.5 7.60218 6.65804 7.22064 6.93934 6.93934C7.22064 6.65804 7.60218 6.5 8 6.5H20C20.3978 6.5 20.7794 6.65804 21.0607 6.93934C21.342 7.22064 21.5 7.60218 21.5 8V20C21.5 20.3978 21.342 20.7794 21.0607 21.0607C20.7794 21.342 20.3978 21.5 20 21.5ZM9.5 18.5H18.5V9.5H9.5V18.5Z" fill="#747CDB"/>
<path d="M15 12H13C12.4477 12 12 12.4477 12 13V15C12 15.5523 12.4477 16 13 16H15C15.5523 16 16 15.5523 16 15V13C16 12.4477 15.5523 12 15 12Z" fill="#747CDB"/>
<path d="M52 21.5H40C39.6022 21.5 39.2206 21.342 38.9393 21.0607C38.658 20.7794 38.5 20.3978 38.5 20V8C38.5 7.60218 38.658 7.22064 38.9393 6.93934C39.2206 6.65804 39.6022 6.5 40 6.5H52C52.3978 6.5 52.7794 6.65804 53.0607 6.93934C53.342 7.22064 53.5 7.60218 53.5 8V20C53.5 20.3978 53.342 20.7794 53.0607 21.0607C52.7794 21.342 52.3978 21.5 52 21.5ZM41.5 18.5H50.5V9.5H41.5V18.5Z" fill="#747CDB"/>
<path d="M47 12H45C44.4477 12 44 12.4477 44 13V15C44 15.5523 44.4477 16 45 16H47C47.5523 16 48 15.5523 48 15V13C48 12.4477 47.5523 12 47 12Z" fill="#747CDB"/>
<path d="M20 53.5H8C7.60218 53.5 7.22064 53.342 6.93934 53.0607C6.65804 52.7794 6.5 52.3978 6.5 52V40C6.5 39.6022 6.65804 39.2206 6.93934 38.9393C7.22064 38.658 7.60218 38.5 8 38.5H20C20.3978 38.5 20.7794 38.658 21.0607 38.9393C21.342 39.2206 21.5 39.6022 21.5 40V52C21.5 52.3978 21.342 52.7794 21.0607 53.0607C20.7794 53.342 20.3978 53.5 20 53.5ZM9.5 50.5H18.5V41.5H9.5V50.5Z" fill="#747CDB"/>
<path d="M15 44H13C12.4477 44 12 44.4477 12 45V47C12 47.5523 12.4477 48 13 48H15C15.5523 48 16 47.5523 16 47V45C16 44.4477 15.5523 44 15 44Z" fill="#747CDB"/>
<path d="M28 21.5H26C25.6022 21.5 25.2206 21.342 24.9393 21.0607C24.658 20.7794 24.5 20.3978 24.5 20V8C24.5 7.60218 24.658 7.22064 24.9393 6.93934C25.2206 6.65804 25.6022 6.5 26 6.5C26.3978 6.5 26.7794 6.65804 27.0607 6.93934C27.342 7.22064 27.5 7.60218 27.5 8V18.5H28C28.3978 18.5 28.7794 18.658 29.0607 18.9393C29.342 19.2206 29.5 19.6022 29.5 20C29.5 20.3978 29.342 20.7794 29.0607 21.0607C28.7794 21.342 28.3978 21.5 28 21.5Z" fill="#747CDB"/>
<path d="M34 9.5H32C31.6022 9.5 31.2206 9.34196 30.9393 9.06066C30.658 8.77936 30.5 8.39782 30.5 8C30.5 7.60218 30.658 7.22064 30.9393 6.93934C31.2206 6.65804 31.6022 6.5 32 6.5H34C34.3978 6.5 34.7794 6.65804 35.0607 6.93934C35.342 7.22064 35.5 7.60218 35.5 8C35.5 8.39782 35.342 8.77936 35.0607 9.06066C34.7794 9.34196 34.3978 9.5 34 9.5Z" fill="#747CDB"/>
<path d="M34 27.5H26C25.6022 27.5 25.2206 27.342 24.9393 27.0607C24.658 26.7794 24.5 26.3978 24.5 26C24.5 25.6022 24.658 25.2206 24.9393 24.9393C25.2206 24.658 25.6022 24.5 26 24.5H32.5V15.5H32C31.6022 15.5 31.2206 15.342 30.9393 15.0607C30.658 14.7794 30.5 14.3978 30.5 14C30.5 13.6022 30.658 13.2206 30.9393 12.9393C31.2206 12.658 31.6022 12.5 32 12.5H34C34.3978 12.5 34.7794 12.658 35.0607 12.9393C35.342 13.2206 35.5 13.6022 35.5 14V26C35.5 26.3978 35.342 26.7794 35.0607 27.0607C34.7794 27.342 34.3978 27.5 34 27.5Z" fill="#747CDB"/>
<path d="M34 53.5C33.6022 53.5 33.2206 53.342 32.9393 53.0607C32.658 52.7794 32.5 52.3978 32.5 52V41.5H32C31.6022 41.5 31.2206 41.342 30.9393 41.0607C30.658 40.7794 30.5 40.3978 30.5 40C30.5 39.6022 30.658 39.2206 30.9393 38.9393C31.2206 38.658 31.6022 38.5 32 38.5H34C34.3978 38.5 34.7794 38.658 35.0607 38.9393C35.342 39.2206 35.5 39.6022 35.5 40V52C35.5 52.3978 35.342 52.7794 35.0607 53.0607C34.7794 53.342 34.3978 53.5 34 53.5Z" fill="#747CDB"/>
<path d="M28 53.5H26C25.6022 53.5 25.2206 53.342 24.9393 53.0607C24.658 52.7794 24.5 52.3978 24.5 52C24.5 51.6022 24.658 51.2206 24.9393 50.9393C25.2206 50.658 25.6022 50.5 26 50.5H28C28.3978 50.5 28.7794 50.658 29.0607 50.9393C29.342 51.2206 29.5 51.6022 29.5 52C29.5 52.3978 29.342 52.7794 29.0607 53.0607C28.7794 53.342 28.3978 53.5 28 53.5Z" fill="#747CDB"/>
<path d="M28 47.5H26C25.6022 47.5 25.2206 47.342 24.9393 47.0607C24.658 46.7794 24.5 46.3978 24.5 46V34C24.5 33.6022 24.658 33.2206 24.9393 32.9393C25.2206 32.658 25.6022 32.5 26 32.5H34C34.3978 32.5 34.7794 32.658 35.0607 32.9393C35.342 33.2206 35.5 33.6022 35.5 34C35.5 34.3978 35.342 34.7794 35.0607 35.0607C34.7794 35.342 34.3978 35.5 34 35.5H27.5V44.5H28C28.3978 44.5 28.7794 44.658 29.0607 44.9393C29.342 45.2206 29.5 45.6022 29.5 46C29.5 46.3978 29.342 46.7794 29.0607 47.0607C28.7794 47.342 28.3978 47.5 28 47.5Z" fill="#747CDB"/>
<path d="M20 35.5H8C7.60218 35.5 7.22064 35.342 6.93934 35.0607C6.65804 34.7794 6.5 34.3978 6.5 34C6.5 33.6022 6.65804 33.2206 6.93934 32.9393C7.22064 32.658 7.60218 32.5 8 32.5H18.5V32C18.5 31.6022 18.658 31.2206 18.9393 30.9393C19.2206 30.658 19.6022 30.5 20 30.5C20.3978 30.5 20.7794 30.658 21.0607 30.9393C21.342 31.2206 21.5 31.6022 21.5 32V34C21.5 34.3978 21.342 34.7794 21.0607 35.0607C20.7794 35.342 20.3978 35.5 20 35.5Z" fill="#747CDB"/>
<path d="M8 29.5C7.60218 29.5 7.22064 29.342 6.93934 29.0607C6.65804 28.7794 6.5 28.3978 6.5 28V26C6.5 25.6022 6.65804 25.2206 6.93934 24.9393C7.22064 24.658 7.60218 24.5 8 24.5C8.39782 24.5 8.77936 24.658 9.06066 24.9393C9.34196 25.2206 9.5 25.6022 9.5 26V28C9.5 28.3978 9.34196 28.7794 9.06066 29.0607C8.77936 29.342 8.39782 29.5 8 29.5Z" fill="#747CDB"/>
<path d="M26 35.5C25.6022 35.5 25.2206 35.342 24.9393 35.0607C24.658 34.7794 24.5 34.3978 24.5 34V27.5H15.5V28C15.5 28.3978 15.342 28.7794 15.0607 29.0607C14.7794 29.342 14.3978 29.5 14 29.5C13.6022 29.5 13.2206 29.342 12.9393 29.0607C12.658 28.7794 12.5 28.3978 12.5 28V26C12.5 25.6022 12.658 25.2206 12.9393 24.9393C13.2206 24.658 13.6022 24.5 14 24.5H26C26.3978 24.5 26.7794 24.658 27.0607 24.9393C27.342 25.2206 27.5 25.6022 27.5 26V34C27.5 34.3978 27.342 34.7794 27.0607 35.0607C26.7794 35.342 26.3978 35.5 26 35.5Z" fill="#747CDB"/>
<path d="M40 29.5C39.6022 29.5 39.2206 29.342 38.9393 29.0607C38.658 28.7794 38.5 28.3978 38.5 28V26C38.5 25.6022 38.658 25.2206 38.9393 24.9393C39.2206 24.658 39.6022 24.5 40 24.5H52C52.3978 24.5 52.7794 24.658 53.0607 24.9393C53.342 25.2206 53.5 25.6022 53.5 26C53.5 26.3978 53.342 26.7794 53.0607 27.0607C52.7794 27.342 52.3978 27.5 52 27.5H41.5V28C41.5 28.3978 41.342 28.7794 41.0607 29.0607C40.7794 29.342 40.3978 29.5 40 29.5Z" fill="#747CDB"/>
<path d="M52 35.5C51.6022 35.5 51.2206 35.342 50.9393 35.0607C50.658 34.7794 50.5 34.3978 50.5 34V32C50.5 31.6022 50.658 31.2206 50.9393 30.9393C51.2206 30.658 51.6022 30.5 52 30.5C52.3978 30.5 52.7794 30.658 53.0607 30.9393C53.342 31.2206 53.5 31.6022 53.5 32V34C53.5 34.3978 53.342 34.7794 53.0607 35.0607C52.7794 35.342 52.3978 35.5 52 35.5Z" fill="#747CDB"/>
<path d="M46 35.5H34C33.6022 35.5 33.2206 35.342 32.9393 35.0607C32.658 34.7794 32.5 34.3978 32.5 34V26C32.5 25.6022 32.658 25.2206 32.9393 24.9393C33.2206 24.658 33.6022 24.5 34 24.5C34.3978 24.5 34.7794 24.658 35.0607 24.9393C35.342 25.2206 35.5 25.6022 35.5 26V32.5H44.5V32C44.5 31.6022 44.658 31.2206 44.9393 30.9393C45.2206 30.658 45.6022 30.5 46 30.5C46.3978 30.5 46.7794 30.658 47.0607 30.9393C47.342 31.2206 47.5 31.6022 47.5 32V34C47.5 34.3978 47.342 34.7794 47.0607 35.0607C46.7794 35.342 46.3978 35.5 46 35.5Z" fill="#747CDB"/>
<path d="M40 47.5C39.6022 47.5 39.2206 47.342 38.9393 47.0607C38.658 46.7794 38.5 46.3978 38.5 46V40C38.5 39.6022 38.658 39.2206 38.9393 38.9393C39.2206 38.658 39.6022 38.5 40 38.5H52C52.3978 38.5 52.7794 38.658 53.0607 38.9393C53.342 39.2206 53.5 39.6022 53.5 40C53.5 40.3978 53.342 40.7794 53.0607 41.0607C52.7794 41.342 52.3978 41.5 52 41.5H41.5V46C41.5 46.3978 41.342 46.7794 41.0607 47.0607C40.7794 47.342 40.3978 47.5 40 47.5Z" fill="#747CDB"/>
<path d="M52 53.5C51.6022 53.5 51.2206 53.342 50.9393 53.0607C50.658 52.7794 50.5 52.3978 50.5 52V46C50.5 45.6022 50.658 45.2206 50.9393 44.9393C51.2206 44.658 51.6022 44.5 52 44.5C52.3978 44.5 52.7794 44.658 53.0607 44.9393C53.342 45.2206 53.5 45.6022 53.5 46V52C53.5 52.3978 53.342 52.7794 53.0607 53.0607C52.7794 53.342 52.3978 53.5 52 53.5Z" fill="#747CDB"/>
<path d="M46 53.5H34C33.6022 53.5 33.2206 53.342 32.9393 53.0607C32.658 52.7794 32.5 52.3978 32.5 52V44C32.5 43.6022 32.658 43.2206 32.9393 42.9393C33.2206 42.658 33.6022 42.5 34 42.5C34.3978 42.5 34.7794 42.658 35.0607 42.9393C35.342 43.2206 35.5 43.6022 35.5 44V50.5H44.5V46C44.5 45.6022 44.658 45.2206 44.9393 44.9393C45.2206 44.658 45.6022 44.5 46 44.5C46.3978 44.5 46.7794 44.658 47.0607 44.9393C47.342 45.2206 47.5 45.6022 47.5 46V52C47.5 52.3978 47.342 52.7794 47.0607 53.0607C46.7794 53.342 46.3978 53.5 46 53.5Z" fill="#747CDB"/>
<path d="M8 21.5C7.60218 21.5 7.22064 21.342 6.93934 21.0607C6.65804 20.7794 6.5 20.3978 6.5 20V8C6.5 7.60218 6.65804 7.22064 6.93934 6.93934C7.22064 6.65804 7.60218 6.5 8 6.5H20C20.3978 6.5 20.7794 6.65804 21.0607 6.93934C21.342 7.22064 21.5 7.60218 21.5 8C21.5 8.39782 21.342 8.77936 21.0607 9.06066C20.7794 9.34196 20.3978 9.5 20 9.5H9.5V20C9.5 20.3978 9.34196 20.7794 9.06066 21.0607C8.77936 21.342 8.39782 21.5 8 21.5Z" fill="#747CDB"/>
<path d="M8 53.5C7.60218 53.5 7.22064 53.342 6.93934 53.0607C6.65804 52.7794 6.5 52.3978 6.5 52V40C6.5 39.6022 6.65804 39.2206 6.93934 38.9393C7.22064 38.658 7.60218 38.5 8 38.5H20C20.3978 38.5 20.7794 38.658 21.0607 38.9393C21.342 39.2206 21.5 39.6022 21.5 40C21.5 40.3978 21.342 40.7794 21.0607 41.0607C20.7794 41.342 20.3978 41.5 20 41.5H9.5V52C9.5 52.3978 9.34196 52.7794 9.06066 53.0607C8.77936 53.342 8.39782 53.5 8 53.5Z" fill="#747CDB"/>
<path d="M40 21.5C39.6022 21.5 39.2206 21.342 38.9393 21.0607C38.658 20.7794 38.5 20.3978 38.5 20V8C38.5 7.60218 38.658 7.22064 38.9393 6.93934C39.2206 6.65804 39.6022 6.5 40 6.5H52C52.3978 6.5 52.7794 6.65804 53.0607 6.93934C53.342 7.22064 53.5 7.60218 53.5 8C53.5 8.39782 53.342 8.77936 53.0607 9.06066C52.7794 9.34196 52.3978 9.5 52 9.5H41.5V20C41.5 20.3978 41.342 20.7794 41.0607 21.0607C40.7794 21.342 40.3978 21.5 40 21.5Z" fill="#747CDB"/>
</svg>
